<?xml version="1.0" encoding="utf-8"?>
<!-- Generator: Adobe Illustrator 27.3.1, SVG Export Plug-In . SVG Version: 6.00 Build 0)  -->
<svg version="1.1" id="Capa_1" xmlns="http://www.w3.org/2000/svg" xmlns:xlink="http://www.w3.org/1999/xlink" x="0px" y="0px"
	 viewBox="0 0 196.5 186" style="enable-background:new 0 0 196.5 186;" xml:space="preserve">
<style type="text/css">
	.st0{fill:#FFFFFF;}
</style>
<g>
	<path class="st0" d="M25.5,79.5c5.4-7.2,10.8-14.5,16.2-21.6c0.6-0.8,0.5-2,1.7-2.3c0.2,0.1,0.2,0,0.2-0.2
		c3.2-4.2,6.3-8.4,9.5-12.6c2.9-3.8,5.8-7.5,8.6-11.3c0.5-0.6,0.9-0.5,1.4-0.6c0.2,0.1,0.5,0.1,0.6-0.2c1.6,0.8,2.6,2.2,3.7,3.6
		c4.4,5.9,8.9,11.9,13.3,17.8c2.1,2.7,4.1,5.5,6.2,8.2c0.5,0.6,0.3,2.4-0.4,2.8c-0.9,0.5-1.9,1.1-2.8-0.1c-2.3-2.8-4.5-5.7-6.4-8.7
		c-1.9-2.9-4.5-5.4-6.6-8.3c-2.1-3-4.4-5.9-6.6-8.9c-0.2-0.2-0.4-0.4-0.6-0.6c-0.5-0.1-0.6,0.2-0.5,0.6c-4.7,6.2-9.4,12.4-14.1,18.7
		c0.6,0.1,0.9,0.1,1.4-0.1c1.7-0.8,3.5-1.6,5.2-2.3c1.2-0.5,2.3-0.4,3.4,0.4c2.4,1.8,4.8,3.6,7.2,5.5c1.5,1.2,1.6,1.1,2.9-0.2
		c1-1,1.9-2.1,3.1-2.9c1.1-0.8,2.1-0.6,2.8,0.3c0.7,0.8,0.4,1.8-0.1,2.7c-0.4,0.6-1.1,0.9-1.4,1.6l0,0c-1.2,1.5-2.7,2.7-4.1,4.2
		c-0.8,0.9-1.8,0.6-2.5,0.1c-2.6-1.9-5.2-3.8-7.8-5.8c-0.5-0.4-1.2-0.5-1.6-1.2c-0.2-0.3-0.7-0.5-1.4-0.2c-3,1.5-6,2.8-9,4.2
		c-0.6,0.3-1.2,0.5-1.8,0.7c-2.6,0.8-3.8,3.1-5.3,5.1c-2.5,3.2-4.8,6.5-7.3,9.7c-0.9,1.2-1.8,2.3-2.6,3.5c-1.5,2.2-2.9,2.3-4.4,0.2
		C25.5,80.7,25.5,80.1,25.5,79.5z"/>
	<path class="st0" d="M86.3,137.6c0.2,1.1-0.3,1.8-1,2.6c-5.9,5.9-11.7,11.9-17.7,17.6c-3.5,3.4-8,5.3-12.8,6
		c-0.4,0-0.8-0.1-1.1,0.2c-2,0-4,0-6,0c-0.4-0.6-1-0.2-1.5-0.3c-4-1.1-7.8-2.5-11-5.2c-3.4-2.8-6-6.1-7.7-10.2
		c-0.9-2-1.2-4.2-1.9-6.2c0-2.6,0-5.1,0-7.7c0.7-1.8,0.8-3.9,1.7-5.6c1-1.8,1.9-3.6,3.2-5.3c6.1-7.7,13.7-14,20.4-21.1
		c1.2-1.3,2.4-1.3,3.5-0.1c0.6,0.7,0.6,2.3-0.3,3.2c-6.1,6.1-12.2,12.3-18.4,18.4c-0.3,0.3-0.7,0.4-1.1,0.5c-0.1,0-0.1,0-0.2,0
		c0.1,0.1,0.1,0.1,0.2,0.2c-0.6,1.7-2,3-2.7,4.6c-3.6,7.8-2.8,15.2,2.1,22.2c1.1,1.6,2.6,3,4.3,4.2c0.1,0.1,0.1,0.3,0.3,0.2
		c2.7,2,5.7,3.1,9,3.8c3.5,0.7,6.9,0.1,10.2-1c3.7-1.2,6.6-3.4,9.3-6.1c5.1-5.1,10.2-10.2,15.3-15.3c1.4-1.4,2.4-1.3,3.7,0.2
		C86,137.5,86.2,137.6,86.3,137.6z"/>
	<path class="st0" d="M141.8,164c-2.4-2.4-4.9-4.8-7.1-7.3c-1.5-1.7-3.3-2.3-5.4-2.6c-6-1.1-11.5-2.9-16.3-7
		c-1.9-1.6-3.6-3.4-4.9-5.5c-0.6-0.9-0.7-1.9-0.3-2.8c0.4-0.9,1.4-1,2.3-0.9c0.8,0,1.1,0.6,1.5,1.1c3.3,5.1,8.1,8.1,13.8,9.7
		c1.8,0.5,3.5,1.2,5.4,1.2c0.8,0,1.2-0.3,1.3-1.1c0.6-3.1,1.1-6.2,1.7-9.4c0.1-0.6,0.2-1.2,0.4-1.7c0.4-1.3,1.7-1.8,3.1-1.2
		c1,0.4,1.2,1.6,0.9,2.8c-0.3,1.2-0.3,2.5-0.7,3.7c-0.6,2.2-0.6,4.6-1.4,6.8c-0.3,0.8-0.1,1.9,0.7,2.9c2.2,2.5,4.8,4.6,6.8,7.3
		c1.6,2.1,1.3,2.5-0.4,3.7c-0.1,0,0,0.2,0,0.3C142.7,164,142.3,164,141.8,164z"/>
	<path class="st0" d="M53.6,164c0.3-0.4,0.7-0.2,1.1-0.2c0,0.1,0,0.2,0,0.2C54.4,164,54,164,53.6,164z"/>
	<path class="st0" d="M96.3,96.9c-0.2,1-0.9,1.7-1.5,2.5c-1.5,2.2-2.8,4.6-3.6,7.1c-0.9,2.7-1.6,5.5-1.5,8.4c0.1,2.7-0.3,5.5,0,8.2
		c0.2,1.8,0.2,3.7,0.8,5.5c0.2,0.7-0.3,1.3,0.3,2c0.5,0.6,0.9,0.9,1.6,1c0.3,0,0.6,0,0.9,0c4.3-0.2,8.7,0.3,13,0.4
		c1.9,0,3.8,0.2,5.8,0.2c0.6,0,0.9,0.1,1.1-0.8c0.4-2.7,1-5.3,1.7-7.9c0.9-3.7,2.6-6.7,6.5-7.9c4.4-1.3,9.7,0.7,11.5,5.4
		c1,2.5,0.4,5,0.5,7.5c0,0.3-0.7,0.4-0.4,1.1c0.3,0.5,0.4,0.7,0.9,0.7c1.6,0,3.1,0,4.7,0c0.6,0,0.9-0.1,1.1-0.8
		c0.7-2.3,1.6-4.4,2.4-6.7c0.9-2.6,1.1-3,3.7-3c3.6,0,7.1-0.5,10.7-0.7c3.1-0.2,6.2-0.3,9.3-0.8c0.6-0.1,0.7-0.2,0.8-0.8
		c0.4-6.7-1.3-12.7-5.1-18.2c-4-5.8-9.5-9.6-15.9-12.4c-1.5-0.7-3.1-1.2-4.6-1.8c-1.5-0.6-3.3-0.9-5.1-1.1c-1.9-0.2-3.9-0.6-5.8-0.7
		c-1.6-0.1-3.3,0-4.9,0.1c-1.2,0.1-2.3,0.3-3.4,0.4c-3,0.3-5.8,1.2-8.6,2.1c-2.3,0.7-4.3,2-6.5,2.8c-0.6-0.1-1.2-0.2-1.2,0.8
		c-0.8,0.5-1.7,1.1-2.5,1.6c-1.1,0.7-3,0.6-3.4-0.4c-0.3-1-0.3-2.2,0.8-3c1.1-0.8,2.2-1.5,3.3-2.2c4.1-2.5,8.5-4.1,13-5.3
		c2.1-0.6,4.3-0.6,6.4-1c1.8-0.3,3.6-0.4,5.5-0.3c3.1,0,6.1,0.6,9.1,1.1c4.6,0.8,9,2.1,13,4.4c3.1,1.8,6,3.9,8.8,6.3
		c3.7,3.3,6.5,7,8.6,11.4c1.8,3.7,2.7,7.5,2.9,11.6c0.1,2.3,0,4.5-0.3,6.8c-0.2,1.3-1,2-2.1,2c-2.3,0-4.5,0.6-6.8,0.7
		c-3.5,0.2-7.1,0.3-10.6,0.8c-1.3,0.2-2.7,0-4.1,0.3c-0.7,0.1-1,0.3-1.2,0.9c-0.7,2.7-1.9,5.2-2.8,7.9c-0.4,1.2-1.1,1.6-2.1,1.6
		c-3.4,0.2-6.9-0.1-10.4,0.2c-0.8,0.1-2.2-1.9-2.1-2.6c0.4-2.8,0.6-5.7,0.5-8.5c-0.1-2.9-4.4-5.3-7.4-3.5c-2,1.2-2.4,3.1-2.8,5.1
		c-0.7,3.2-1.1,6.4-2,9.6c-0.3,1.1-0.9,1.8-2.2,1.7c-2.5-0.1-5,0.1-7.5-0.1c-5.1-0.3-10.2-0.5-15.4-0.6c-3.6-0.1-4.7-1.7-5.4-5.8
		c-0.9-5.8-0.8-11.7-0.8-17.6c0-1.1,0.2-2.1,0.7-3.1c0.4-0.7,0.1-1.7,0.4-2.6c0.9-2.7,1.9-5.2,3.4-7.7c1.1-1.8,2.3-3.5,3.5-5.1
		c0.5-0.8,1.3-1,2.1-0.7c0.8,0.3,1.6,0.6,1.6,1.7c0,0.7,0.3,1.6-0.8,1.8c-0.1,0-0.1,0-0.2,0C96.2,96.8,96.2,96.8,96.3,96.9z"/>
	<path class="st0" d="M133.3,21.5c1.2-0.5,2.3-1.2,3.5-1.6c2.8-1,7.8-1.6,10.7-1.3c5.2,0.5,9.9,2.2,13.9,5.4c4.4,3.5,7.5,8,8.8,13.5
		c1.5,6.2,1.1,12.2-1.9,17.9c-1.3,2.4-2.8,4.7-4.7,6.7c-5.6,5.5-11.1,11-16.6,16.6c-1.3,1.3-2.2,1.3-3.4,0c-0.9-1.1-0.8-1.8,0.4-3
		c5.3-5.3,10.6-10.6,15.9-15.9c5.1-5.1,7.5-11.3,6.7-18.4c-0.4-3.8-1.9-7.4-4.4-10.5c-2.8-3.5-6.3-5.8-10.5-7
		c-4.7-1.3-9.4-1.3-14,0.5c-2.1,0.8-4.1,2.1-5.9,3.5c-0.1-0.1-0.1-0.1-0.2-0.2c0,0.1,0,0.1,0,0.2c-0.3,0.6-0.8,1.1-1.3,1.6
		C107.3,52.2,84.5,75,61.8,97.7c-0.8,0.8-1.5,1.6-2.7,1.8c-0.3,0-0.6,0-0.9,0c-1.6-0.3-2.2-1.8-1.3-3.1c0.2-0.3,0.6-0.6,0.9-0.9
		c23-23,46.1-46,69-69.1c1.7-1.7,3.5-3.2,5.6-4.4C132.9,22.2,133.1,21.9,133.3,21.5z"/>
	<path class="st0" d="M94.4,19c1.5-0.4,2,0.9,2.6,1.7c3.7,4.9,7.4,9.8,11,14.7c0.7,0.9,1.2,1.9,0.5,3.1c-0.6,1.1-2.5,1.4-3.3,0.4
		c-2.3-3-4.6-6.1-6.9-9.1c-1.1-1.5-2.2-3-3.3-4.5c-0.4-0.5-0.7-0.7-1.2-0.1c-1.4,1.9-2.9,3.8-4.3,5.7c-2.8,3.7-5.6,7.3-8.3,11
		c-0.9,1.2-2.3,1.6-3.3,0.9c-0.9-0.7-1-2.3-0.1-3.4c2.2-3,4.4-5.9,6.7-8.9c2.6-3.5,5.3-7,7.9-10.5C92.9,19.3,93.4,18.7,94.4,19z"/>
	<path class="st0" d="M165.4,132.9c0.2-1.6,0.3-3.8,0.3-6c0-1.6,1-2.5,2.6-2.4c1.2,0,2.1,1.1,1.9,2.5c-0.6,4,0,8.1-1.4,12
		c-1.1,2.9-4.6,6-8.2,6.2c-4.4,0.4-8.8,0.9-13.3,0.9c-0.2,0-0.5,0-0.7,0.1c-1.5,0.4-2.7-0.2-3.2-1.6c-0.6-1.7-1.3-3.3-2-5
		c-0.4-1,0-2.4,0.9-2.9c1-0.5,2.5,0,3.1,1.2c0.5,1,1,2,1.3,3c0.2,0.8,0.6,0.9,1.3,0.8c3.4-0.4,6.9-0.3,10.3-0.8
		c1.3-0.2,2.7-0.1,3.9-0.8C164.9,138.8,165.5,136.3,165.4,132.9z"/>
	<path class="st0" d="M122,86.1c2.1,0,3.1,1,3,2.6c-0.1,1-1.1,1.4-1.8,1.6c-2.7,0.7-5.4,1.2-8.2,1.7c-1.1,0.2-2.7-0.7-3.1-1.7
		c-0.2-0.5,0.9-2.4,1.5-2.6C116.3,87.2,119.3,86.6,122,86.1z"/>
	<path class="st0" d="M141.5,92.1c-1.7-0.4-3.4-0.7-5.1-1.1c-1-0.2-1.9-0.4-2.9-0.4c-1.1-0.1-1.7-0.6-2.2-1.5c-0.4-0.7-0.5-1.3,0-2
		c0.6-0.9,1.5-1.3,2.6-1.1c2,0.4,4,0.9,6,1.2c1.1,0.1,2.1,0.3,3,0.8c0.6,0.3,1.5,2.1,1.2,2.5C143.4,91.3,142.6,92,141.5,92.1z"/>
	<path class="st0" d="M105.4,89.5c-0.1-0.9,0.5-0.9,1.2-0.8C106.3,89.2,105.9,89.4,105.4,89.5z"/>
	<path class="st0" d="M58.2,99.5c0.3,0,0.6,0,0.9,0c0,0.3-0.1,0.5-0.5,0.5C58.3,100,58.2,99.7,58.2,99.5z"/>
	<path class="st0" d="M62.8,37.2c-0.1-0.4,0-0.7,0.5-0.6C63.3,36.9,63.2,37.1,62.8,37.2z"/>
	<path class="st0" d="M133.3,21.5c-0.2,0.3-0.4,0.6-0.9,0.5C132.5,21.5,132.9,21.5,133.3,21.5z"/>
	<path class="st0" d="M63.6,30.6c-0.1,0.3-0.3,0.3-0.6,0.2C63.1,30.5,63.2,30.2,63.6,30.6z"/>
	<path class="st0" d="M73.1,60.6c0.1,0,0.1,0.1,0.2,0.1C73.2,61,73.2,60.7,73.1,60.6C73.1,60.7,73.1,60.6,73.1,60.6z"/>
	<path class="st0" d="M43.6,55.4c0,0.2,0,0.3-0.2,0.2C43.5,55.5,43.5,55.4,43.6,55.4z"/>
	<path class="st0" d="M96.3,96.9c-0.1-0.1-0.1-0.1-0.2-0.2c0.1,0,0.1,0,0.2,0C96.3,96.8,96.3,96.8,96.3,96.9z"/>
	<path class="st0" d="M34.6,124.5c-0.1-0.1-0.1-0.1-0.2-0.2c0.1,0,0.1,0,0.2,0C34.6,124.3,34.6,124.4,34.6,124.5z"/>
	<path class="st0" d="M131.4,27.8c0-0.1,0-0.1,0-0.2c0.1,0.1,0.1,0.1,0.2,0.2C131.5,27.8,131.4,27.8,131.4,27.8z"/>
	<path class="st0" d="M86.3,137.6c-0.2,0-0.3-0.1-0.2-0.3C86.2,137.4,86.2,137.5,86.3,137.6z"/>
	<path class="st0" d="M38.5,155.7c-0.2,0.1-0.3-0.1-0.3-0.2C38.3,155.6,38.4,155.6,38.5,155.7z"/>
</g>
</svg>
