<?xml version="1.0" encoding="utf-8"?>
<!-- Generator: Adobe Illustrator 27.3.1, SVG Export Plug-In . SVG Version: 6.00 Build 0)  -->
<svg version="1.1" id="Capa_1" xmlns="http://www.w3.org/2000/svg" xmlns:xlink="http://www.w3.org/1999/xlink" x="0px" y="0px"
	 viewBox="0 0 196.5 186" style="enable-background:new 0 0 196.5 186;" xml:space="preserve">
<style type="text/css">
	.st0{fill:#FFFFFF;}
</style>
<g>
	<path class="st0" d="M27.6,59.3c0.5-2.7,0.6-5.5,1.4-8.1c3.8-11.7,11.7-19.1,23.9-21.1c11.6-2,21.2,2.1,28.8,11.1
		c1,1.2,1,2.3,0.1,3.2c-0.9,0.9-2.1,0.7-3.1-0.3c-1.9-1.8-3.6-3.9-5.7-5.4c-15.3-11.3-37.8-1.9-40.7,16.9c-0.8,5-0.2,9.8,1.7,14.5
		c3.6,9,6.2,18.3,7.2,28c0.3,2.9,1.5,4.8,3.5,6.8c9.3,9.2,18.5,18.5,27.8,27.7c0.3,0.3,0.7,0.7,1.3,1.2c0-0.7,0-1.2,0-1.6
		c0-5.4,0.1-10.9,0-16.3c-0.3-15.8,2.5-31,8.2-45.7c2.4-6.2,2.8-12.5,0.6-18.9c-0.5-1.6-0.1-2.7,1.1-3.1c1.3-0.4,2.3,0.2,2.8,1.8
		c2.4,7.1,2.2,14.1-0.5,21.1c-3.4,8.8-5.9,17.8-7.1,27.1c-0.3,2.5-0.6,5.1-0.8,7.8c2.9,0,5.7,0,8.4,0c0-0.1,0.1-0.2,0.1-0.2
		c-1.1-3.2-1.1-3.2,1.6-5.2c2.7-2.1,4.7-4.9,6.3-8c-6-1.1-9.9-4.4-10.4-10.6c-0.4-5.3,2.4-9,7.2-11.3c-1.1-1.9-1.7-3.8-1.3-6
		c0.6-2.9,2.3-4.8,5.1-5.6c0.8-0.2,1.2-0.5,1.4-1.4c2.9-12.9,13.7-21.9,27-22.4c0.5,0,0.9-0.1,1.5-0.1c-0.8-3-0.8-5.8,1.1-8.2
		c1.1-1.4,2.6-2.7,4.2-3.4c3.6-1.6,7.7-0.4,10.2,2.7c2.3,2.7,3.1,7.2,0,11.5c1,0.6,2.1,1.1,3.1,1.8c6.8,4.3,11.1,10.3,13,18.1
		c0.1,0.5,0.6,1.2,1,1.4c5.1,1.6,7.1,6.6,4.5,11.2c-0.1,0.2-0.2,0.3-0.3,0.5c5.3,2.6,8,6.7,7,12.6c-0.9,5.4-4.5,8.3-9.9,9.3
		c1.6,3.1,3.6,5.9,6.3,8c2.9,2.3,3.1,3.2,1,6.4c-2.8,4.1-6.9,6.6-11.5,8.2c-0.6,0.2-1.3,0.5-2,0.7c1.1,1.7,2.1,3.3,3.1,5
		c0.3,0.5,0.7,1.2,0.5,1.6c-0.2,0.7-0.8,1.5-1.4,1.8c-1,0.5-1.8-0.1-2.5-1c-1.5-2.2-2.9-4.5-4.6-6.6c-2.7-3.4-5.9-6.3-9.8-8.5
		c0.6,1.5,1.3,2.7,1.7,4.1c0.8,2.8,0.3,5.5-1.1,8c-1.3,2.3-0.8,4.2,0.8,6.1c0.8,1,1.6,2,2.4,3.1c2.5,3.3,2.6,6.9,0.7,10.5
		c-0.7,1.3-1.5,2.5-2.2,3.8c-0.9,1.6-0.8,3.1,0.5,4.4c0.5,0.6,1,1.2,1.5,1.8c2.5,2.8,2.8,5.9,1.3,9.2c-0.1,0.2-0.2,0.5-0.3,0.9
		c2.2,0,4.4,0,6.7,0c-0.2-2.7-0.3-5.4-0.7-8.1c-0.7-4.7-1.7-9.4-2.6-14.1c0-0.2-0.1-0.4-0.1-0.5c-0.3-1.3,0.2-2.3,1.4-2.6
		c1.2-0.3,2.3,0.2,2.6,1.6c0.9,3.9,1.8,7.9,2.4,11.9c0.6,3.9,0.9,7.9,1.3,11.9c2.4,0,4.9,0,7.7,0c-0.5-4.2-0.8-8.4-1.4-12.5
		c-0.8-5.5-2.3-10.8-4.3-15.9c-0.4-1-0.6-2,0.3-2.8c1.1-1.2,2.9-0.7,3.5,1c1.4,4.5,2.9,8.9,4,13.5c1.4,5.9,1.9,11.9,2,17.9
		c0,1.3-0.2,2.4-1.4,3.1c-25.3,0-50.6,0-76,0c-1.1-0.6-1.5-1.6-1.4-2.9c0.2-2.3,0.2-4.6,0.3-6.9c0.5-7.6,2-14.9,4.6-22.1
		c1-2.8,2.3-5.6,3.4-8.5c-5.9-0.8-11.7-1.5-17.7-2.3c0,0.8,0,1.3,0,1.9c0,12.6,0,25.1,0,37.7c0,1.3-0.2,2.4-1.4,3.1
		c-12.3,0-24.7,0-37,0c-1.2-0.6-1.6-1.6-1.5-2.8c0.1-1.5,0-3,0-4.6c0-1.5,0.8-2.4,2.1-2.4c1.2,0,2,0.9,2.1,2.4c0,1,0,2.1,0,3.1
		c6.6,0,13.1,0,19.3,0c-6.3-6.3-12.8-12.8-19.2-19.2c0,0.4,0,0.9,0,1.3c0,1.9,0,3.9,0,5.8c-0.1,1.4-0.9,2.3-2.1,2.3
		c-1.2,0-1.9-0.9-2-2.3c0-0.5,0-0.9,0-1.4c0-11.2,0-22.4,0-33.5c0.1-13.9-2.5-27.2-7.5-40.2c-0.9-2.3-1.7-4.8-2.2-7.2
		c-0.4-1.9-0.5-3.8-0.7-5.7C27.6,59.5,27.6,59.4,27.6,59.3z M42.2,108.1c0,0.4-0.1,0.6-0.1,0.9c0,8,0,16.1,0.1,24.1
		c0,0.6,0.3,1.3,0.7,1.7c8.1,8.2,16.2,16.3,24.4,24.4c0.3,0.3,0.7,0.6,1,0.6c1.8,0.1,3.6,0,5.4,0c0-0.3,0.1-0.6,0.1-0.8
		c0-6.2,0-12.4,0-18.6c0-0.6-0.4-1.3-0.9-1.7c-9.8-9.9-19.7-19.7-29.6-29.6C43,108.8,42.7,108.6,42.2,108.1z M91.4,159.8
		c6.2,0,12.2,0,18.3,0c-0.1-0.4-0.2-0.8-0.4-1.1c-1.4-3.3-1.1-6.3,1.3-9c0.6-0.6,1.1-1.4,1.7-2c1.2-1.2,1.3-2.6,0.5-4.1
		c-0.7-1.3-1.6-2.6-2.3-4c-1.4-2.7-2-5.6-0.5-8.5c0.9-1.7,2-3.3,3.3-4.8c1.8-2.2,2.4-4.3,0.9-6.9c-1.3-2.3-1.6-4.8-0.9-7.4
		c0.4-1.4,1-2.7,1.5-4c-0.1-0.1-0.2-0.2-0.3-0.3c-2.2,1.9-4.6,3.6-6.7,5.7c-5.4,5.5-8.9,12.1-11.6,19.2
		C93.2,141.6,91.7,150.5,91.4,159.8z M98.7,73.2c0,2.6,0,5,0,7.5c0.1,3.5,2.2,5.6,5.7,5.7c2.9,0,5.9,0,8.8,0c2.9,0,4.7-1.4,5.5-4.2
		c0.7-2.4,1.9-3.4,4.5-3.4c2,0,4,0,5.9,0c3,0,4.1,0.8,5,3.7c0.7,2.4,2.5,3.8,4.9,3.9c3.3,0.1,6.6,0.1,9.9,0c2.4,0,4.6-1.6,4.9-3.9
		c0.3-3,0.1-6.1,0.1-9.2C135.6,73.2,117.2,73.2,98.7,73.2z M103.4,90.5c3.5,7.4,12.6,13.9,23.2,13.8c10.8-0.1,19.7-6.8,22.9-13.8
		c-3.2,0-6.4,0-9.5,0c-4.9,0-8-2.2-9.8-6.8c-0.1-0.4-0.7-0.8-1-0.8c-1.8-0.1-3.7-0.1-5.5,0c-0.3,0-0.8,0.4-1,0.7
		c-2.1,5-4.8,6.9-10.2,6.9C109.5,90.5,106.4,90.5,103.4,90.5z M128.6,159.8c0.2,0.1,0.3,0.1,0.4,0.1c2.4,0,4.8-0.2,7.2,0.1
		c1.9,0.2,2.8-0.7,3.5-2.3c1-2,1-3.9-0.7-5.6c-0.6-0.6-1.1-1.3-1.7-2c-1.7-2.1-2.2-4.5-1.2-7c0.7-1.7,1.6-3.3,2.5-4.9
		c1.5-2.7,1.4-4.6-0.5-7c-0.8-1.1-1.6-2.1-2.4-3.2c-2.1-2.8-2.6-5.7-1.2-8.9c0.5-1,0.9-2.1,1.2-3.2c0.7-2.9-0.8-5.1-2.8-7.1
		c-1.4-1.4-2.9-0.4-4.4-0.3C128.6,125.7,128.6,142.7,128.6,159.8z M124.3,159.9c0-17.2,0-34.3,0-51.4c-1.3,0-2.7-0.4-3.6,0.1
		c-1.7,1-2.8,2.6-3.3,4.6c-0.6,2.2,0.3,4.2,1.2,6.1c1.4,3.2,1,6.1-1.1,8.8c-0.9,1.2-1.9,2.4-2.8,3.6c-1.3,1.8-1.7,3.7-0.7,5.7
		c0.7,1.3,1.4,2.6,2.2,3.8c2,3.5,1.7,6.5-0.8,9.5c-0.4,0.5-0.9,1.1-1.3,1.6c-1.8,2.2-1.6,5.6,0.6,7.4c0.2,0.2,0.5,0.2,0.7,0.2
		C118.3,159.9,121.2,159.9,124.3,159.9z M153.8,91.7c-3,5.8-7.2,10-12.4,12.9c2.6,2.3,5.1,4.6,7.7,6.8c0.3,0.3,0.9,0.4,1.3,0.3
		c1.6-0.5,3.3-1,4.8-1.7c3.1-1.4,5.8-3.1,7.6-6.3C158.8,100.7,156.1,96.6,153.8,91.7z M90.5,104.1c0,0.1,0.1,0.3,0.3,0.5
		c2.4,3.6,6.1,5.2,10,6.7c2,0.8,3.6,0.8,4.8-1.2c0.2-0.3,0.6-0.6,0.9-0.8c1.8-1.4,3.5-2.9,5.4-4.4c-5.4-3-9.6-7.2-12.5-12.6
		c-1.3,2.2-2.4,4.4-3.9,6.3C94,100.5,92.2,102.2,90.5,104.1z M128.6,58.4c4.1,0,8,0,11.9,0c1.2-10.3-4.7-19.5-11.9-18.9
		C128.6,45.8,128.6,52.1,128.6,58.4z M124.3,39.4c-9.3,1.5-13.3,9.7-11.9,19c3.9,0,7.9,0,11.9,0C124.3,52,124.3,45.8,124.3,39.4z
		 M77.9,117.2c6.6,0.9,13,1.7,19.4,2.6c0.3,0,0.7-0.1,0.8-0.3c0.9-1.2,1.7-2.5,2.6-3.8c-0.3-0.1-0.5-0.2-0.6-0.3
		c-3.4-1.1-6.7-2.6-9.5-4.9c-0.4-0.3-1-0.3-1.5-0.4c-3.2,0-6.4,0-9.7,0c-0.5,0-1,0-1.5,0.1C77.9,112.6,77.9,114.8,77.9,117.2z
		 M126.5,69c2.5,0,5,0,7.4,0c1,0,1.4-0.4,1.4-1.4c0-1.2,0-2.5,0-3.7c0-0.8-0.4-1.3-1.2-1.3c-5.1,0-10.1,0-15.2,0
		c-0.9,0-1.3,0.4-1.2,1.3c0,1.1,0.1,2.3,0,3.4c-0.1,1.2,0.4,1.7,1.6,1.7C121.7,69,124.1,69,126.5,69z M155.5,87.8
		c3.1,0.7,5.5,0,7.4-2c2-2.2,2.4-4.7,1.3-7.4c-1-2.5-3-4-5.8-4.3C158,78.7,159.6,83.7,155.5,87.8z M97.3,87.7
		c-1.8-1.9-2.6-4.1-2.7-6.6c-0.1-2.4,0-4.7,0-7.1c-4.5,0.7-7.2,4.6-6.2,8.7C89.3,86.6,93.4,89,97.3,87.7z M128.5,31.7
		c0,2.2,0.9,3.1,3.1,3.4c1.1,0.1,2.2,0.5,3.3,0.5c0.6,0,1.5-0.1,1.9-0.5c1.7-1.4,1.9-4,0.8-5.9c-1.1-1.9-3.3-2.8-5.4-2.2
		C130,27.5,128.5,29.5,128.5,31.7z M142,43.4c3.1,4.6,2.8,9.9,2.8,15.1c2.7,0,5.1,0,7.6,0C150.9,52,147.5,47,142,43.4z M110.9,43.3
		c-5.5,3.6-9,8.6-10.5,15.1c2.6,0,5,0,7.6,0C108,53.1,107.9,47.9,110.9,43.3z M113.5,62.6c-2.5,0-4.9,0-7.3,0c-1.2,0-2,0.5-2.3,1.8
		c-0.5,2.1,0,3.8,1.1,4.3c0.2,0.1,0.3,0.2,0.5,0.2c2.6,0,5.3,0,7.9,0C113.5,66.8,113.5,64.8,113.5,62.6z M139.5,69c2.4,0,4.7,0,7,0
		c1.2,0,2.2-0.4,2.6-1.6c0.5-1.5,0.1-3.6-0.8-4.2c-0.3-0.2-0.7-0.5-1.1-0.5c-2.5,0-5,0-7.6,0C139.5,64.8,139.5,66.8,139.5,69z
		 M99.8,62.6c-1.9,0.2-4.1-0.6-5.4,1.7c-0.7,1.2-0.6,2.5,0.3,3.6c1.4,1.8,3.4,1,5.1,1.1C99.8,66.8,99.8,64.8,99.8,62.6z M153.2,62.7
		c0,2.2,0,4.2,0,6.4c1.8-0.1,3.9,0.6,5.2-1.4c0.7-1.1,0.7-2.4,0-3.5C157.1,62.1,155,62.7,153.2,62.7z"/>
	<path class="st0" d="M69,82.6c0,2.1,0,4.2,0,6.3c0,1.8-0.7,2.6-2.5,2.6c-3.9,0-7.7,0.1-11.6-0.1c-4.6-0.3-8.1-4.3-8-8.9
		c0.1-4.6,3.7-8.5,8.3-8.7c3.8-0.1,7.6-0.1,11.4-0.1c1.6,0,2.3,0.8,2.3,2.4C69,78.2,69,80.4,69,82.6z M64.8,84.7c-0.7,0-1.3,0-2,0
		c-1.7,0-3.4,0-5.1-0.1c-1.2-0.1-1.8-0.9-1.8-2.1c0-1.1,0.7-1.9,1.9-2c0.5,0,1,0,1.5,0c1.8,0,3.6,0,5.4,0c0-1,0-1.8,0-2.6
		c-0.2-0.1-0.3-0.1-0.5-0.1c-2.7,0-5.3,0-8,0c-3.1,0-5.2,1.9-5.2,4.7c0,2.8,2,4.8,5.2,4.9c2.5,0,5.1,0,7.6,0c0.3,0,0.6-0.1,0.9-0.2
		C64.8,86.3,64.8,85.6,64.8,84.7z"/>
	<path class="st0" d="M58,55.4c1.5,0,3,0,4.6,0c1.4,0,2.3,0.9,2.3,2.1c0,1.1-0.9,2-2.2,2c-3.2,0.1-6.3,0.1-9.5,0
		c-1.3,0-2.1-0.9-2.1-2.1c0-1.2,0.8-2,2.3-2C54.9,55.4,56.5,55.4,58,55.4z"/>
	<path class="st0" d="M58,61.8c1.5,0,3,0,4.6,0c1.4,0,2.3,0.9,2.3,2.1c0,1.1-0.9,2-2.2,2.1c-3.2,0.1-6.3,0.1-9.5,0
		c-1.3,0-2.1-0.9-2.1-2.1c0-1.2,0.8-2,2.3-2C54.9,61.7,56.5,61.8,58,61.8z"/>
	<path class="st0" d="M51.3,128.8c0.7,0.5,1.4,0.7,1.8,1.1c4.2,4.1,8.3,8.2,12.4,12.4c1.1,1.1,1.1,2.3,0.3,3.2
		c-0.9,0.9-2.1,0.8-3.2-0.2c-4.1-4.1-8.3-8.3-12.4-12.4c-0.8-0.8-1.2-1.7-0.6-2.6C49.9,129.7,50.7,129.3,51.3,128.8z"/>
	<path class="st0" d="M126.5,100.8c-1.9-0.7-3.8-1.3-5.5-2.2c-1.3-0.6-1.5-1.9-0.9-2.9c0.6-1,1.8-1.3,3-0.5c2.2,1.4,4.3,1.4,6.5,0
		c1.3-0.8,2.5-0.5,3.1,0.6c0.6,1,0.3,2.3-1,2.9C130.1,99.5,128.4,100.1,126.5,100.8z"/>
</g>
</svg>
