<?xml version="1.0" encoding="utf-8"?>
<!-- Generator: Adobe Illustrator 27.3.1, SVG Export Plug-In . SVG Version: 6.00 Build 0)  -->
<svg version="1.1" id="Capa_1" xmlns="http://www.w3.org/2000/svg" xmlns:xlink="http://www.w3.org/1999/xlink" x="0px" y="0px"
	 viewBox="0 0 196.5 186" style="enable-background:new 0 0 196.5 186;" xml:space="preserve">
<style type="text/css">
	.st0{fill:#FFFFFF;}
</style>
<g>
	<path class="st0" d="M20.9,76.3c1.2-4.7,4.4-7,9-8.3c16.2-4.5,32.4-9.2,48.6-13.8c1.6-0.4,1.8-1,1.4-2.5c-0.7-2.7-1.4-5.5-1.5-8.3
		c-0.3-5.9,2.2-10.5,7-14c0.7-0.5,1-1,0.9-1.9c-0.3-2.6,1.3-4.7,3.8-5.3c2.4-0.6,4.8,0.7,5.7,3.1c0.3,0.8,0.7,1,1.5,1.2
		c7.7,1.3,12.4,5.9,14.2,13.4c0.8,3.4,1.6,6.7,2.5,10.3c0.6,0,1.2,0,1.7,0c16.6-0.3,33.2-0.7,49.9-1c4.8-0.1,8.3,2.2,9.7,6.4
		c1.4,4,0.2,8.4-3.1,10.9c-2.2,1.7-4.9,1.9-7.6,2.2c-11.4,1.5-22.9,2.9-34.3,4.3c-0.1,0-0.2,0.1-0.4,0.2c0.3,0.6,0.5,1.2,0.8,1.7
		c4.1,8.9,7.9,17.9,9.6,27.6c0.9,4.8,1.7,9.7,0.6,14.7c-2,8.7-9.4,14.7-18.3,15c-2.9,0.1-4.2,1.5-4.2,4.5c0,4.1,0.2,8.3-0.3,12.3
		c-0.3,2.5-1.5,4.9-2.3,7.3c7.3,3.5,15.3,3,20.8-3.9c1.2-1.5,2.6-1.8,3.9-0.9c1.3,1,1.3,2.5,0.1,4.1c-0.2,0.3-0.4,0.6-0.7,0.8
		c-5.8,6.4-13,8.7-21.2,6.2C94.2,155.6,70,148,46.4,138.9c-4.7-1.8-9.4-3.8-13.9-6.2c-6.7-3.6-9.6-11.4-7.2-18.5
		c0.3-0.9,1.2-1.8,2.1-2.1c0.6-0.2,1.9,0.2,2.3,0.8c0.5,0.6,0.7,1.9,0.5,2.6c-2,6.4,1.7,11.3,6.1,13.4c1.8,0.8,3.5,1.7,5.5,2.6
		c1.9-6.2,5.8-9,12.4-7.1c1.4-3.6,2.8-7.3,4.2-10.9c1.4-3.8,3.6-6.9,6.8-9.4c2.6-2,5.5-3.4,8.7-4c1.9-0.4,3.2,0.3,3.5,1.9
		c0.3,1.6-0.6,2.7-2.4,3.2c-5.7,1.3-9.6,4.7-11.7,10.1c-1.5,3.7-2.9,7.4-4.3,11.2c0.8,0.3,1.5,0.6,2.2,0.9c1.4,0.7,2,2.1,1.4,3.4
		c-0.5,1.2-1.9,1.9-3.3,1.4c-2.1-0.8-4.2-1.6-6.3-2.5c-3.4-1.3-4.8-0.7-6,2.8c-0.1,0.3-0.2,0.6-0.3,1.1c7.2,2.6,14.3,5.2,21.5,7.8
		c1.7-3.1,2.7-6.2,2.3-9.6c-1-9.4,7.9-17.1,19-14.6c1.4,0.3,2.2,1.5,2,2.9c-0.2,1.4-1.3,2.2-2.8,2.1c-1.4-0.1-2.8-0.4-4.2-0.3
		c-5.4,0.2-8.8,4-8.7,9.5c0,1.9-0.1,3.9-0.5,5.8c-0.4,1.9-1.1,3.7-1.8,5.8c2.3,0.8,4.8,1.6,7.4,2.5c0.3-1.1,0.6-2.1,0.9-3.2
		c1.5-5.6,5.5-8,11-6.7c0.1,0,0.3,0,0.6,0.1c0.5-2.6,1-5.2,1.4-7.8c0.5-3.1,1.1-6.1,2.9-8.8c3.7-5.3,10.5-7.8,16.6-5.9
		c1.9,0.6,2.8,1.8,2.4,3.3c-0.4,1.6-1.8,2.2-3.7,1.7c-5.9-1.5-11.3,1.7-12.5,7.7c-0.8,3.6-1.4,7.3-2.1,11c-0.2,0.8-0.1,1.3,0.8,1.8
		c1.6,0.7,2.1,2.1,1.4,3.5c-0.6,1.3-2,1.8-3.6,1.2c-1.8-0.7-3.5-1.6-5.2-2.3c-2.4-1-4.3-0.2-5,2.4c-0.4,1.2-0.7,2.5-1,4
		c8.2,2.6,16.3,5.2,24.5,7.7c2.3-3.4,3.3-7.1,3.1-11.1c-0.1-2.4-0.2-4.7-0.2-7.1c-0.2-5.5,3.4-9.4,9-9.6c8.7-0.3,14.7-7.4,14.1-16
		c-1-13.5-6.1-25.6-11.9-37.6c-0.2-0.4-0.4-0.7-0.5-1.1c-0.9-2-0.1-3.7,2.1-4c5.4-0.7,10.9-1.4,16.3-2.1c8.2-1,16.4-2,24.6-3.1
		c2.7-0.3,4.1-2.1,4-4.6c-0.2-2.6-1.9-4.3-4.7-4.2c-15,0.3-29.9,0.6-44.9,0.9c-2.4,0-4.8,0-7.2,0c-2,7.8-6.7,12.7-14.5,13.7
		c-8.2,1-13.9-2.9-17.6-10.3c-3.2,0.9-6.5,1.9-9.8,2.8c-13.9,4-27.8,7.9-41.6,11.9c-3.5,1-4.9,3.4-3.7,6.5c0.8,2.2,2.8,3.4,5.1,3
		c11.1-2,22.2-4,33.3-6c0.6-0.1,1.2-0.2,1.8-0.3c1.4-0.2,2.7,0.6,3,1.9c0.3,1.4-0.5,2.8-2,3.1c-4,0.8-8.1,1.5-12.2,2.3
		c-7.6,1.4-15.1,2.8-22.7,4.1c-5.7,1-10-1.9-11.5-7.5c-0.1-0.2-0.2-0.5-0.3-0.7C20.9,78.6,20.9,77.5,20.9,76.3z M105.5,38.9
		c-2.4-5.6-8.1-8.5-13.7-6.9c-5.6,1.6-9.3,7-8.3,12.7c0.7,3.9,1.6,7.7,2.7,11.4c1.4,4.9,6.1,8,11.3,7.8c5-0.2,9.4-3.6,10.7-8.5
		c1.1-4-0.6-7.7-1.3-11.5c-0.5,0.1-0.8,0.1-1,0.2c-3.3,0.8-6.6,1.6-10,2.4c-1.6,0.4-2.9-0.4-3.3-1.9c-0.3-1.3,0.5-2.6,2-3.1
		c0.4-0.1,0.9-0.2,1.3-0.3C99.1,40.5,102.3,39.7,105.5,38.9z"/>
	<path class="st0" d="M111.8,105.6c-5.6-0.8-11.1-1.7-16.6-2.5c-1.6-0.2-3.3-0.5-4.9-0.8c-1.5-0.2-2.3-1.1-2.5-2.6
		c-1.1-10-4.5-19.1-9.5-27.8c-0.9-1.6-0.6-3,0.7-3.8c1.3-0.8,2.8-0.4,3.7,1.2c5,8.2,8.1,17.1,9.8,26.4c0.3,1.4,0.8,1.8,2.2,2
		c5.9,0.8,11.7,1.8,17.6,2.7c1.7,0.3,2.6,1.5,2.3,2.9C114.4,104.8,113.2,105.7,111.8,105.6z"/>
</g>
</svg>
